<svg id="Camada_5" data-name="Camada 5" xmlns="http://www.w3.org/2000/svg" viewBox="0 0 365.69 376.3"><defs><style>.cls-1{fill:#fdd835;}.cls-2{fill:#6aad5c;}.cls-3{fill:#832da4;}.cls-4{fill:#4f94ec;}.cls-5{fill:#db4f3f;}.cls-6{fill:#ff9800;}</style></defs><title>Triangle w color_Full color</title><polygon class="cls-1" points="0 191.31 269.19 233.77 269.19 191.31 0 191.31"/><path class="cls-1" d="M336.25,251.52c9.55-14.47,14.08-28.91,15.05-42.36H296.56v44.07l86.28,13.61V209.16h-23.9c-.39,2.38-.86,4.73-1.4,7.05C351.71,241.6,336.25,251.52,336.25,251.52Z" transform="translate(-17.16 -17.85)"/><polygon class="cls-2" points="0 184.99 269.19 184.99 269.19 142.53 0 184.99"/><path class="cls-2" d="M359.77,202.84h23.07V145.16l-34.9,5.51C358.94,170.49,361.28,187.41,359.77,202.84Z" transform="translate(-17.16 -17.85)"/><path class="cls-2" d="M296.56,202.84h54.92a75.52,75.52,0,0,0-6.77-30.69c-3.18-6.95-8.5-13.24-14.47-18.69l-33.68,5.31Z" transform="translate(-17.16 -17.85)"/><path class="cls-3" d="M382.84,74.88v-57l-86,46.74c.17,11.48,2.94,20.75,12.95,35.09Z" transform="translate(-17.16 -17.85)"/><polygon class="cls-3" points="85.9 151.98 269.19 89.77 269.19 52.42 85.9 151.98"/><path class="cls-4" d="M296.56,131.59v20.74L323.78,148A147.47,147.47,0,0,0,296.56,131.59Z" transform="translate(-17.16 -17.85)"/><polygon class="cls-4" points="42.95 171.74 269.19 136.08 269.19 95.81 42.95 171.74"/><path class="cls-4" d="M344.46,144.77l38.38-6V81.27L313.32,104.6c4,5.37,9,11.44,15.05,18.52A178.43,178.43,0,0,1,344.46,144.77Z" transform="translate(-17.16 -17.85)"/><path class="cls-5" d="M221.35,282.45l-118.3-40.05,110.89,60.15C213.75,295.62,216.38,288.69,221.35,282.45Z" transform="translate(-17.16 -17.85)"/><path class="cls-5" d="M277.59,316.89c-5.59,4.43-13.46,7.23-21.76,8.37l127,68.89v-57l-93.54-31.67A67.24,67.24,0,0,1,277.59,316.89Z" transform="translate(-17.16 -17.85)"/><path class="cls-6" d="M286.35,267v-8.86L60.1,222.62,225.43,278A64.51,64.51,0,0,1,247,264.65C271.76,255,286.35,267,286.35,267Z" transform="translate(-17.16 -17.85)"/><path class="cls-6" d="M296.45,285.31c-.46,5.22-1.16,10-3.9,15.18l90.3,30.25V273.28l-86.28-13.54v22.78C296.56,283.45,296.53,284.38,296.45,285.31Z" transform="translate(-17.16 -17.85)"/></svg>